# xmcd CD database file
#
# Track frame offsets:
#	150
#	11730
#	26540
#	38306
#	49230
#	57889
#	71135
#	81007
#	93968
#	106231
#	131956
#
# Disc length: 1922 seconds
#
# Revision: 0
# Processed by: cddbd v1.5.1PL2 Copyright (c) Steve Scherf et al.
# Submitted via: CDex 1.51
#
DISCID=8907800b
DTITLE=Brian Young - Gotta Wander, Gotta Travel Again
DYEAR=2000
DGENRE=Country
TTITLE0=Have A Bloody Go
TTITLE1=Carve Her Name
TTITLE2=Mogilo Man
TTITLE3=Nowhere To Ride
TTITLE4=Fall In Step
TTITLE5=Cattle Duffer
TTITLE6=Gotta Wander, Gotta Travel
TTITLE7=Dark Eyed Brother
TTITLE8=Please Forgive Me
TTITLE9=Lost
TTITLE10=Richard Head
EXTD=YEAR: 2000
EXTT0=
EXTT1=
EXTT2=
EXTT3=
EXTT4=
EXTT5=
EXTT6=
EXTT7=
EXTT8=
EXTT9=
EXTT10=
PLAYORDER=
